<svg id="Layer_1" data-name="Layer 1" xmlns="http://www.w3.org/2000/svg" xmlns:xlink="http://www.w3.org/1999/xlink" viewBox="0 0 1080 1080"><defs><style>.cls-1{fill:url(#linear-gradient);}.cls-2{fill:url(#linear-gradient-2);}.cls-3{fill:#156cdb;}</style><linearGradient id="linear-gradient" x1="179.6" y1="595.34" x2="179.6" y2="463.38" gradientTransform="matrix(1, 0, 0.21, -1, -116.86, 1080)" gradientUnits="userSpaceOnUse"><stop offset="0" stop-color="#156cdb"/><stop offset="1" stop-color="#07eed0"/></linearGradient><linearGradient id="linear-gradient-2" x1="85.06" y1="466.33" x2="85.06" y2="593.97" xlink:href="#linear-gradient"/></defs><path class="cls-1" d="M194.42,605.15l23.7-114.62c1-4.76-2.08-8.63-6.84-8.63H175.91a11.17,11.17,0,0,0-10.41,8.63L141.79,605.18c-1.64,7.92-9.39,14.34-17.31,14.34h52.59C185,619.53,192.77,613.09,194.42,605.15Z"/><path class="cls-2" d="M53.89,496.37,30.19,611c-1,4.76,2.08,8.63,6.84,8.63H75.46A11.15,11.15,0,0,0,85.85,611l23.71-114.68C111.2,488.41,119,482,126.87,482H71.25C63.3,482,55.53,488.43,53.89,496.37Z"/><path class="cls-3" d="M82,496.25l25,108.94c1.89,7.26,3.46,14.34,11.38,14.34H177.1c-7.92,0-9.56-6.74-11.38-14.34l-25-108.94c-1.93-6.92-3.46-14.34-11.38-14.34H70.61C78.54,481.91,80,489.67,82,496.25Z"/><path class="cls-3" d="M340.13,518.22q-13-10.12-41.69-10.12-30.6,0-48.19,11.81a56.31,56.31,0,0,0-18.43,21.21,62.66,62.66,0,0,0-6.39,28.43q0,23.63,13.74,35.42,12.77,11.32,42.41,11.33,34.69,0,53-15.42a53.35,53.35,0,0,0,14.22-20.12,70.68,70.68,0,0,0,5.06-27.35Q353.87,528.81,340.13,518.22Zm-36.5,38.19a148.51,148.51,0,0,1-4,20.24,57,57,0,0,1-7.11,16.51q-4.46,6.75-10.48,6.75-8.44,0-8.43-15.66A132.4,132.4,0,0,1,275,567.87a124.64,124.64,0,0,1,4.22-19.76,61.34,61.34,0,0,1,7.59-16.63q4.69-7,11.2-7c2.89,0,4.78,1.17,5.66,3.49s1.32,5.75,1.32,10.24A146.11,146.11,0,0,1,303.63,556.41Z"/><polygon class="cls-3" points="461.1 510.75 425.92 581.59 416.04 510.75 364.95 510.75 381.58 614.36 431.94 614.36 486.64 510.75 461.1 510.75"/><path class="cls-3" d="M595.56,518.22q-13-10.12-41.69-10.12-30.6,0-48.19,11.81a56.31,56.31,0,0,0-18.43,21.21,62.66,62.66,0,0,0-6.39,28.43q0,23.63,13.74,35.42Q507.37,616.29,537,616.3q34.69,0,53-15.42a53.35,53.35,0,0,0,14.22-20.12,70.68,70.68,0,0,0,5.06-27.35Q609.29,528.81,595.56,518.22Zm-36.51,38.19a148.51,148.51,0,0,1-4,20.24A57,57,0,0,1,548,593.16q-4.46,6.75-10.48,6.75-8.44,0-8.43-15.66a132.4,132.4,0,0,1,1.32-16.38,124.64,124.64,0,0,1,4.22-19.76,61.34,61.34,0,0,1,7.59-16.63q4.7-7,11.2-7c2.89,0,4.78,1.17,5.66,3.49s1.32,5.75,1.32,10.24A144.21,144.21,0,0,1,559.05,556.41Z"/><path class="cls-3" d="M675.07,590.5a44.2,44.2,0,0,1,.72-6.75q.72-4.34,1.93-9.88l9.88-47h19l3.13-16.14H691l7-32.29H673.14a158.19,158.19,0,0,1-11.2,13,58.88,58.88,0,0,1-23.25,14.94A126.7,126.7,0,0,1,623,510.74l-3.37,16.14h18.8l-10.12,48a69.15,69.15,0,0,0-1.56,9.64q-.36,4.34-.36,7.23,0,8.19,2.77,13a19,19,0,0,0,7.35,7.35,30.15,30.15,0,0,0,10.36,3.37,82,82,0,0,0,11.81.84q3.38,0,7.83-.12t8.67-.48q4.21-.36,7.71-.6a27.31,27.31,0,0,0,5.18-.72l3.61-16.63q-9.65,0-13.13-1.21C676.24,595.73,675.07,593.72,675.07,590.5Z"/><path class="cls-3" d="M775.07,465q-6.51-4.57-15.9-4.58a36,36,0,0,0-10.24,1.45,27,27,0,0,0-8.67,4.22,19.89,19.89,0,0,0-5.9,7,20.47,20.47,0,0,0-2.17,9.52q0,9.88,6.51,14.46t16.14,4.58a34,34,0,0,0,9.88-1.45,26,26,0,0,0,8.55-4.34,22.69,22.69,0,0,0,6-7,19.5,19.5,0,0,0,2.29-9.64Q781.58,469.55,775.07,465Z"/><polygon class="cls-3" points="703.99 614.36 752.9 614.36 775.31 510.75 725.92 510.75 703.99 614.36"/><path class="cls-3" d="M894.59,518.22q-13-10.12-41.69-10.12-30.6,0-48.19,11.81a56.31,56.31,0,0,0-18.43,21.21,62.66,62.66,0,0,0-6.39,28.43q0,23.63,13.74,35.42Q806.4,616.29,836,616.3q34.69,0,53-15.42a53.35,53.35,0,0,0,14.22-20.12,70.68,70.68,0,0,0,5.06-27.35Q908.32,528.81,894.59,518.22Zm-36.51,38.19a148.51,148.51,0,0,1-4,20.24A57,57,0,0,1,847,593.16q-4.46,6.75-10.48,6.75-8.44,0-8.43-15.66a132.4,132.4,0,0,1,1.32-16.38,124.64,124.64,0,0,1,4.22-19.76,61.34,61.34,0,0,1,7.59-16.63q4.69-7,11.2-7c2.89,0,4.78,1.17,5.66,3.49s1.32,5.75,1.32,10.24A142.36,142.36,0,0,1,858.08,556.41Z"/><path class="cls-3" d="M1041.82,514.48q-8.19-6.37-20.72-6.39a45.67,45.67,0,0,0-16.63,2.89,81.88,81.88,0,0,0-13,6.27,78.92,78.92,0,0,0-11.33,8.92h-1.45l-4.34-15.42H935.06L913.13,614.36h49.15l15.9-74.94a73.76,73.76,0,0,1,6.14-5.3,13.24,13.24,0,0,1,8.31-3.13,6.47,6.47,0,0,1,5.42,2.29,9.21,9.21,0,0,1,1.81,5.9,27.43,27.43,0,0,1-.72,5.9q-.72,3.25-1.21,6.39l-13.25,62.89h48.92l10.12-47q.72-3.86,1.81-8.8c.72-3.29,1.41-6.54,2-9.76s1.2-6.3,1.69-9.28a48.76,48.76,0,0,0,.72-7.59Q1050,520.87,1041.82,514.48Z"/></svg>